<?xml version="1.0" encoding="UTF-8"?>
<!-- Generator: Adobe Illustrator 13.0.1, SVG Export Plug-In . SVG Version: 6.00 Build 14948)  -->
<!DOCTYPE svg PUBLIC "-//W3C//DTD SVG 1.1//EN" "http://www.w3.org/Graphics/SVG/1.1/DTD/svg11.dtd">
<svg version="1.1" id="Livello_1" xmlns="http://www.w3.org/2000/svg" xmlns:xlink="http://www.w3.org/1999/xlink" x="0px" y="0px" width="72px" height="72px" viewBox="0 0 72 72" enable-background="new 0 0 72 72" xml:space="preserve">
<g>
	<path fill="#808080" d="M50.363,65c-2.674-2.466-7.411-4.121-12.844-4.169v-6.28c1.287-0.139,2.531-0.41,3.728-0.798   c4.621-1.503,8.444-4.762,10.687-8.993c1.375-2.592,2.155-5.547,2.155-8.686v-3.269h10.438v-4.041H54.089v-6.398h-4.043   l0.002,0.606l0.002,13.102h-0.004c-0.014,8.031-6.514,14.533-14.547,14.547c-8.033-0.014-14.531-6.516-14.547-14.547V22.973v-0.606   h-4.041v6.398H6.472v4.041h10.439v3.269c0.002,3.139,0.781,6.094,2.154,8.686c2.242,4.231,6.068,7.49,10.689,8.993   c1.193,0.389,2.439,0.659,3.725,0.798v6.28C28.048,60.879,23.31,62.534,20.636,65H50.363z"/>
	<path fill="#808080" d="M25.7,38.025c0,4.854,3.936,8.787,8.789,8.787h2.021c4.854,0,8.789-3.934,8.789-8.787V22.973v-0.606V14.79   C45.3,9.935,41.363,6,36.512,6H34.49c-4.854,0-8.79,3.935-8.79,8.789v7.577v0.606V38.025z"/>
</g>
</svg>